# xmcd
#
# Track frame offsets:
#	150
#	18000
#	33910
#	50220
#	75832
#	96937
#	109782
#	126275
#	146745
#	174795
#	191467
#	205212
#	223912
#	236607
#	256545
#
# Disc length: 3638
#
# Revision: 4
# Processed by: cddbd v1.5.1PL0 Copyright (c) Steve Scherf et al.
# Submitted via: CDex 1.50Beta7
# Normalized: r2:TDELIM( - ),TSWAP
#
DISCID=c40e340f
DTITLE=SENSHUKAI - LOVE SCENE Vol.1 -BEGINNING-
DYEAR=1993
DGENRE=Other
TTITLE0=Joe Cocker and Jennifer Warnes - Up Where We Belong
TTITLE1=Bobby Caldwell - Special To Me
TTITLE2=Fine Young Cannibals - She Drives Me Crazy
TTITLE3=Commodores - I'm Gonna Need Your Loving
TTITLE4=The Main Ingredient - I Can't Go For That
TTITLE5=Neil Sedaka - Laughter In The Rain
TTITLE6=Gilbert O' Sullivan - Alone Again (Naturally)
TTITLE7=Bertie Higgins - Casablanca
TTITLE8=10cc - Woman In Love
TTITLE9=Vanessa Villiams - Save The Best For Last
TTITLE10=Gilbert O' Sullivan - Clair
TTITLE11=Cathy Dennis - Touch Me (All Night Long)
TTITLE12=James Brown - I Got You (I Feel Good)
TTITLE13=Bobby Caldwell duet with Marilyn Scott - Back To You
TTITLE14=The Righteous Brothers - Unchained Melody
EXTD=YEAR: 1993
EXTT0=
EXTT1=
EXTT2=
EXTT3=
EXTT4=
EXTT5=
EXTT6=
EXTT7=
EXTT8=
EXTT9=
EXTT10=
EXTT11=
EXTT12=
EXTT13=
EXTT14=
PLAYORDER=
